<?xml version="1.0" standalone="no"?>
<!DOCTYPE svg PUBLIC "-//W3C//DTD SVG 20010904//EN"
 "http://www.w3.org/TR/2001/REC-SVG-20010904/DTD/svg10.dtd">
<svg version="1.0" xmlns="http://www.w3.org/2000/svg"
 width="225.000000pt" height="225.000000pt" viewBox="0 0 225.000000 225.000000"
 preserveAspectRatio="xMidYMid meet">

<g transform="translate(0.000000,225.000000) scale(0.100000,-0.100000)"
fill="#000000" stroke="none">
<path d="M273 1840 c-57 -35 -64 -61 -61 -242 l3 -163 47 -3 48 -3 2 -517 3
-517 525 0 525 0 5 70 5 70 33 3 32 3 0 185 0 184 48 0 c27 0 51 -3 55 -6 3
-3 1 -18 -5 -34 -12 -35 5 -70 59 -122 50 -49 81 -60 118 -43 17 7 90 73 162
146 170 172 171 175 80 265 -59 59 -69 65 -100 62 -32 -3 -41 4 -146 113 -61
65 -111 119 -111 122 0 3 20 29 45 58 25 29 45 56 45 60 0 7 -152 137 -178
153 -9 5 -24 -2 -43 -20 l-29 -28 0 66 c0 72 -24 122 -70 145 -19 10 -149 13
-545 13 -498 0 -521 -1 -552 -20z m129 -61 c37 -37 30 -47 -37 -51 l-50 -3 -5
-120 c-5 -112 -6 -120 -25 -120 -19 0 -20 8 -23 133 l-3 133 30 29 c39 39 74
39 113 -1z m964 6 c24 -24 25 -30 22 -127 l-3 -103 -76 -6 c-158 -13 -279 -69
-299 -137 -21 -74 -32 -219 -20 -263 11 -40 10 -42 -29 -90 -128 -154 -118
-136 -146 -261 -15 -65 -24 -122 -20 -128 11 -17 32 -12 143 36 103 44 109 48
167 120 l60 74 97 0 c53 0 103 3 112 6 14 5 16 -12 16 -155 l0 -161 -455 0
-455 0 -2 593 c-2 325 -7 600 -12 610 -8 16 16 17 433 17 l442 0 25 -25z
m-946 -668 c0 -425 3 -566 12 -575 9 -9 121 -12 444 -12 l432 0 4 -45 3 -45
-472 0 -473 0 0 620 0 620 25 0 25 0 0 -563z m828 284 c-70 -83 -86 -110 -102
-164 -23 -81 -41 -109 -69 -105 -38 5 -48 44 -36 149 6 52 16 105 22 119 16
33 82 68 159 85 118 25 118 26 26 -84z m439 -368 c-95 -96 -102 -101 -119 -86
-16 14 -39 15 -196 9 -169 -6 -180 -6 -203 13 -36 29 -16 51 69 77 86 26 119
46 135 82 6 15 52 76 101 136 l90 109 112 -119 113 -119 -102 -102z m231 44
c23 -23 42 -47 42 -53 0 -13 -262 -274 -276 -274 -12 0 -94 82 -94 95 0 13
262 275 275 275 6 0 30 -19 53 -43z"/>
<path d="M577 1673 c-4 -3 -7 -15 -7 -25 0 -17 17 -18 339 -18 279 0 340 2
344 14 13 33 -14 36 -343 36 -180 0 -330 -3 -333 -7z"/>
<path d="M573 1505 c-3 -9 -1 -21 4 -26 5 -5 97 -8 224 -7 206 3 214 4 214 23
0 19 -8 20 -218 23 -191 2 -218 0 -224 -13z"/>
<path d="M572 1338 c3 -23 5 -23 168 -23 163 0 165 0 168 23 l3 22 -171 0
-171 0 3 -22z"/>
<path d="M577 1204 c-4 -4 -7 -16 -7 -26 0 -17 11 -18 151 -18 150 0 150 0
147 23 -3 21 -6 22 -144 25 -77 1 -143 -1 -147 -4z"/>
</g>
</svg>
